<?xml version="1.0" encoding="utf-8"?>
<!-- Generator: Adobe Illustrator 18.0.0, SVG Export Plug-In . SVG Version: 6.00 Build 0)  -->
<!DOCTYPE svg PUBLIC "-//W3C//DTD SVG 1.1//EN" "http://www.w3.org/Graphics/SVG/1.1/DTD/svg11.dtd" [
	<!ENTITY ns_flows "http://ns.adobe.com/Flows/1.0/">
	<!ENTITY ns_extend "http://ns.adobe.com/Extensibility/1.0/">
	<!ENTITY ns_ai "http://ns.adobe.com/AdobeIllustrator/10.0/">
	<!ENTITY ns_graphs "http://ns.adobe.com/Graphs/1.0/">
]>
<svg version="1.1" id="Layer_1" xmlns:x="&ns_extend;" xmlns:i="&ns_ai;" xmlns:graph="&ns_graphs;"
	 xmlns="http://www.w3.org/2000/svg" xmlns:xlink="http://www.w3.org/1999/xlink" xmlns:a="http://ns.adobe.com/AdobeSVGViewerExtensions/3.0/"
	 x="0px" y="0px" viewBox="0 0 1400 980" enable-background="new 0 0 1400 980" xml:space="preserve">
<g>
	<rect fill="#FBFBEB" width="1400" height="980"/>
	<g>
		<g>
			<g>
				<polygon fill="#FDCA94" points="338.7,356.4 350.9,341 305.5,328.5 305.5,288.5 273.6,288.5 241.7,288.5 241.7,328.5 196.3,341 
					208.5,356.4 				"/>
				<path fill="#48453E" d="M350.9,341l-35.2-9.7l-18.3,17.2l-50.1-3.2l-5.6-16.8L196.3,341c0,0-21.7,11.4-21.7,97.5h98.9h98.9
					C372.5,352.4,350.9,341,350.9,341z"/>
				<path fill="#E8B280" d="M273.6,288.5h-31.9V301l0.6,0.6c8.3,8.4,19.5,13.1,31.3,13.1h0c11.7,0,23-4.7,31.3-13.1l0.6-0.6v-12.5
					H273.6z"/>
				<path fill="#FDCA94" d="M273.6,151.6c0,0-55.1,2.3-55.1,57.5v39.5c0,14.8,5.9,29.1,16.3,39.6l7.9,8c8,8.1,19,12.7,30.4,12.7h0.5
					h0.5c11.4,0,22.4-4.6,30.4-12.7l7.9-8c10.4-10.6,16.3-24.8,16.3-39.6v-39.5C328.7,153.9,273.6,151.6,273.6,151.6z"/>
				<polygon fill="#534F47" points="241.7,328.5 273.6,438.4 223.7,354 239.4,344.2 221,334.2 				"/>
				<polygon fill="#FFFFFF" points="241.7,328.5 273.6,344.7 305.5,328.5 273.6,438.4 				"/>
				<polygon fill="#32332E" points="276.8,360.8 280.3,347.9 277.1,342.9 273.5,342.9 269.9,342.9 266.7,347.9 270.5,361.1 
					263.3,403 273.6,438.4 284,402.5 				"/>
				<polygon fill="#534F47" points="305.5,328.5 273.6,438.4 323.6,354 307.8,344.2 326.2,334.2 				"/>
				<path fill="#815C56" d="M339,173.6c-0.3-1.9-0.6-3.9-1.1-5.8c-2.1-9.1-6.4-17.7-12.8-24.6c-15.6-16.7-48-23.5-68.6-13.8
					c-3.4,1.6-6.6,3.8-9.2,6.5c0.2-7,2.1-13.2,2.1-13.2c-12.6,6-7.7,17.3-7.7,17.3c-12-3.3-19.3,5.7-19.3,5.7
					c6.5-2.8,10.8,0,12.9,2.3c-24.9,13.2-27.5,36-26.2,50.4c0.3,3.8,0.9,6.9,1.4,9.2c0,0.1,0.1,0.3,0.1,0.4c0.1,0.3,0.1,0.6,0.2,0.8
					c0.1,0.3,0.1,0.6,0.2,0.9c0.3,1,0.5,1.6,0.5,1.6s7-0.1,7,18.9h5.6c0,0-0.7-25.4,7-39.6c9.1,3.9,41.4,15.4,84.8,0.1
					c7.7,14.2,7,39.5,7,39.5h5.6c0-19,7-18.9,7-18.9c0.7-0.1,2.1-7.9,2.3-8.8c0.6-3,1.1-6,1.4-9.1C340,186.9,340,180.2,339,173.6z"
					/>
			</g>
			<path fill="#815C56" d="M234.3,215v6.7c12.5-2.9,25.8-4.1,25.8-4.1l-1.1-11.3C258.9,206.3,245.8,208.5,234.3,215z"/>
			<path fill="#815C56" d="M314.4,215v6.7c-12.5-2.9-25.8-4.1-25.8-4.1l1.1-11.3C289.7,206.3,302.9,208.5,314.4,215z"/>
			<ellipse fill="#524441" cx="248.5" cy="232.8" rx="4.5" ry="8"/>
			<ellipse fill="#524441" cx="299" cy="232.8" rx="4.5" ry="8"/>
			<path fill="#FFFFFF" d="M274.3,264.2h-14.1c0,0,2.2,19.5,14.1,19.5s14.1-19.5,14.1-19.5H274.3z"/>
			<path fill="#534F47" d="M333,206.6c-0.6-29.6-17.5-55.2-47.3-62.7c-4-1-8-1.5-12-1.5c-21.4,0-43.3,13.4-52.3,33.1
				c-4,8.9-7.4,21.1-8.2,31.5c-5.1,2.4-8.7,8.2-8.7,14.8V233c0,8.9,6.3,16.1,14.1,16.1v-35.8c0.4-5.3,0.7-12.1,0.8-12.6
				c0.8-4.3,2-8.6,3.5-12.7c4.4-11.8,11.8-22.6,22.7-29.2c17.2-10.4,41.9-9.9,58.5,1.6c11.2,7.7,18.3,20,22,32.9
				c0.7,2.4,2.5,15.2,2.5,22.5v33.3c1.8,0,3.5-0.4,5.1-1.1c-1.4,6.6-6.6,22.4-24,28.1c-1.5-3.7-5.2-3.7-9.6-2.8
				c-4.8,1.1-8,4.6-7.3,7.9c0.7,3.3,5.2,5.1,10,4.1c4.2-0.9,7.6-2.3,7.5-6.3c22.2-7.1,26.3-29.9,26.8-33.2c3.4-2.9,5.6-7.6,5.6-12.8
				V222C342.8,214.8,338.6,208.7,333,206.6z"/>
		</g>
		<g>
			<g>
				<polygon fill="#CA805E" points="913.7,356.4 925.9,341 880.5,328.5 880.5,288.5 848.6,288.5 816.7,288.5 816.7,328.5 771.3,341 
					783.5,356.4 				"/>
				<path fill="#B26A4D" d="M848.6,288.5h-31.9V301l0.6,0.6c8.3,8.4,19.5,13.1,31.3,13.1h0c11.7,0,23-4.7,31.3-13.1l0.6-0.6v-12.5
					H848.6z"/>
				<path fill="#CA805E" d="M848.6,151.6c0,0-55.1,2.3-55.1,57.5v39.5c0,14.8,5.9,29.1,16.3,39.6l7.9,8c8,8.1,19,12.7,30.4,12.7h0.5
					h0.5c11.4,0,22.4-4.6,30.4-12.7l7.9-8c10.4-10.6,16.3-24.8,16.3-39.6v-39.5C903.7,153.9,848.6,151.6,848.6,151.6z"/>
				<path fill="#5AC19F" d="M925.9,341l-35.2-9.7l0,0l-10.2-2.8l-31.2,27.9l-32.6-27.9L771.3,341c0,0-21.7,11.4-21.7,97.5h98.9h98.9
					C947.5,352.4,925.9,341,925.9,341z"/>
				<path fill="#E7CB7A" d="M914.8,173.6c-0.5-9.2-1.4-17-1.9-18.9c-7.6-28.8-46.6-35.3-71.6-31.1c-18,3-36.9,6.5-51.4,17.7
					c7.4-1.9,14.9-3.7,22.3-5.6c-17.4,10.1-31.2,26.2-38.6,44.9c4.1-2.7,8.2-5.4,12.3-8c0.9-0.6,1.7-0.8,2.6-0.2
					c0,0-4.5,15.6-0.7,39.5c2,1,5.7,4.8,5.7,18.5h5.6c0,0-0.7-25.4,7-39.6c9.1,3.9,41.4,15.4,84.8,0.1c7.7,14.2,7,39.5,7,39.5h5.6
					c0-19,7-18.9,7-18.9C915.6,211.5,915.7,190.2,914.8,173.6z"/>
				<path fill="#E7CB7A" d="M897.7,218.7c0,0,5.3,50.5-24.6,70.6c0,0-1.9,2-4.9,4.3l-11.9-7.9h-7.5h-6.2l-11.9,8.8l0,0
					c-3.6-2.6-6.1-5.2-6.1-5.2c-29.9-20.1-25.4-64.4-25.4-64.4l-5.7,1.5v23.4c0,15.5,6.4,30.5,17.7,41.5l8.5,8.3
					c7.8,7.6,18.1,12.2,29,13.1c10.9-0.9,21.3-5.5,29-13.1l8.5-8.3c11.3-11.1,17.7-26,17.7-41.5v-23.4L897.7,218.7z"/>
			</g>
			<path fill="#E7CB7A" d="M809.3,215v6.7c12.5-2.9,25.8-4.1,25.8-4.1l-1.1-11.3C833.9,206.3,820.8,208.5,809.3,215z"/>
			<path fill="#E7CB7A" d="M889.4,215v6.7c-12.5-2.9-25.8-4.1-25.8-4.1l1.1-11.3C864.7,206.3,877.9,208.5,889.4,215z"/>
			<ellipse fill="#524441" cx="823.5" cy="232.8" rx="4.5" ry="8"/>
			<ellipse fill="#524441" cx="874" cy="232.8" rx="4.5" ry="8"/>
			<path fill="#FFFFFF" d="M848.6,264.2h-24.1c0,0,3.8,19.5,24.1,19.5c20.3,0,24.1-19.5,24.1-19.5H848.6z"/>
			<path fill="#534F47" d="M908,206.6c-0.6-29.6-17.5-55.2-47.3-62.7c-4-1-8-1.5-12-1.5c-21.4,0-43.3,13.4-52.3,33.1
				c-4,8.9-7.4,21.1-8.2,31.5c-5.1,2.4-8.7,8.2-8.7,14.8V233c0,8.9,6.3,16.1,14.1,16.1v-35.8c0.4-5.3,0.7-12.1,0.8-12.6
				c0.8-4.3,2-8.6,3.5-12.7c4.4-11.8,11.8-22.6,22.7-29.2c17.2-10.4,41.9-9.9,58.5,1.6c11.2,7.7,18.3,20,22,32.9
				c0.7,2.4,2.5,15.2,2.5,22.5v33.3c1.8,0,3.5-0.4,5.1-1.1c-1.4,6.6-6.6,22.4-24,28.1c-1.5-3.7-5.2-3.7-9.6-2.8
				c-4.8,1.1-8,4.6-7.3,7.9c0.7,3.3,5.2,5.1,10,4.1c4.2-0.9,7.6-2.3,7.5-6.3c22.2-7.1,26.3-29.9,26.8-33.2c3.4-2.9,5.6-7.6,5.6-12.8
				V222C917.8,214.8,913.6,208.7,908,206.6z"/>
		</g>
		<g>
			<rect x="516.3" y="261.2" fill="#C76F24" width="97.3" height="67.3"/>
			<path fill="#FBA919" d="M637.6,203.2c-0.7-34.2-27.7-62.3-61.7-65.7c-27.6-2.8-59,10.5-71.2,36.3c-4.4,9.2-6.2,19.3-6.4,29.4
				c-1,52.1,21.7,64.1,21.7,64.1l48,3.5l48-3.5C616,267.3,638.7,255.3,637.6,203.2z"/>
			<path fill="#FDCA94" d="M567.9,438.4h99.3c-6-82.8-22-97.5-22-97.5l-45.4-12.5v-39.9h-31.9h-31.9v39.9L490.7,341
				c0,0-16,14.6-22,97.5H567.9L567.9,438.4L567.9,438.4z"/>
			<path fill="#E8B280" d="M599.8,296.1v-11.5h-31.9h-31.9v11.5c12.7,13.3,26.8,18.9,31.9,18.9C573,315,587.1,309.4,599.8,296.1z"/>
			<path fill="#FDCA94" d="M567.9,175c0,0-55.1-4.3-55.1,55.1s45.1,81.1,55.1,81.1c10,0,55.1-21.7,55.1-81.1S567.9,175,567.9,175z"
				/>
			<g>
				<ellipse fill="#524441" cx="543.9" cy="240.4" rx="4.5" ry="8"/>
				<path fill="#524441" d="M538.1,229.8c0.8,4.7,4.8,3.9,4.8,3.9l-1.2,4.4C534.7,236.3,538.1,229.8,538.1,229.8z"/>
			</g>
			<g>
				<ellipse fill="#524441" cx="594.4" cy="240.4" rx="4.5" ry="8"/>
				<path fill="#524441" d="M600.2,229.8c-0.8,4.7-4.8,3.9-4.8,3.9l1.2,4.4C603.6,236.3,600.2,229.8,600.2,229.8z"/>
			</g>
			<path fill="#C1546B" d="M599.8,328.5c0,0,0,0.1-0.1,0.3c-9.1,31.9-54.4,31.9-63.6,0c-0.1-0.2-0.1-0.3-0.1-0.3l-33.7,9.3
				l-13.1,100.7l78.6,0l81,0l-15.5-100.7L599.8,328.5z"/>
			<path fill="#FFFFFF" d="M525.3,356.1c6.1,20.7,42.5-4.2,42.5-4.2l0,0c-13.6,0.5-27.4-7.2-32-23.1
				C535.8,328.8,519.1,335.4,525.3,356.1z"/>
			<path fill="#FFFFFF" d="M610.3,356.1c-6.1,20.7-42.5-4.2-42.5-4.2l0,0c13.6,0.5,27.4-7.2,32-23.1
				C599.8,328.8,616.4,335.4,610.3,356.1z"/>
			<path fill="#FBA919" d="M636.3,195.3h-11.1c-8.1-18-31.1-55.4-74.9-28.1c-16.6,10.3-26.6,19.8-32.6,28.1h-19
				c0,0-8.8,66.1,2.2,104.5s23,42.5,46.6,42.5c0,0-23.1-18.5-22.6-64.9c-3.5-6-6.5-12.8-8.6-20.7c0,0,0,0,0,0
				c-1.8,0-4.2-1.3-6.6-3.4c45.8-5.4,79.6-45.1,90.3-59.3c1.8,1.2,15.9,11.3,23,33.7c0,0,0,0,0,0l0,0c0,0-4.3,4.3,0,12.4
				c4.3,8,3.6,16.6-3.4,16.5c0,0,0,0,0,0c-2.3,8.4-5.6,15.7-9.4,22c0,45.3-22.6,63.5-22.6,63.5c23.5,0,35.5-4.1,46.6-42.5
				S636.3,195.3,636.3,195.3z"/>
			<path fill="#534F47" d="M623.2,218.4c-0.6-27.7-16.4-51.7-44.4-58.7c-3.7-0.9-7.5-1.4-11.3-1.4c-20,0-40.6,12.6-49,31
				c-3.8,8.3-6.9,19.8-7.7,29.6c-4.8,2.3-8.1,7.6-8.1,13.9v10.4c0,8.3,5.9,15.1,13.2,15.1v-33.5c0.3-5,0.6-11.3,0.7-11.8
				c0.8-4,1.9-8,3.3-11.9c4.1-11,11.1-21.2,21.3-27.4c16.1-9.7,39.3-9.3,54.9,1.5c10.5,7.3,17.1,18.8,20.7,30.8
				c0.7,2.2,2.4,14.2,2.4,21.1v31.2c1.7,0,3.3-0.4,4.7-1c-1.3,6.2-6.2,21-22.5,26.3c-1.4-3.5-4.9-3.5-9-2.6c-4.5,1-7.5,4.3-6.9,7.4
				c0.7,3.1,4.9,4.8,9.3,3.8c4-0.9,7.1-2.2,7-5.9c20.8-6.7,24.7-28,25.1-31.1c3.2-2.8,5.3-7.1,5.3-12v-10.4
				C632.4,226.1,628.5,220.4,623.2,218.4z"/>
			<path fill="#FBA919" d="M603.5,226C603.5,226,603.5,226,603.5,226c1.4,0.3,2.8,0.6,4.1,0.9c0.5,0,0.9-0.1,1-0.3
				c0.3-0.7-1.4-1.7-2.5-2.3c-3.1-1.6-7.5-3.3-13.6-4.5c-2.1-0.4-4.3-0.4-6.5,0c-2.6,0.5-5.2,1.7-4.7,4.6
				C581.4,224.4,593.6,224.2,603.5,226L603.5,226z"/>
			<ellipse fill="#FFFFFF" cx="567.9" cy="283.5" rx="6.7" ry="11.3"/>
		</g>
		<g>
			<path fill="#916950" d="M1207.6,207.8c-0.8-10.2-2.7-20.2-6.6-29.4c-7.7-17.8-23.2-31.7-41.6-37.8c-4.8-1.6-9.7-2.6-14.7-3.1
				c-27.6-2.8-59,10.5-71.2,36.3c-10.1,21.3-7.3,44.6-7.8,67.3c-0.5,19.2,0.1,38.9,1.3,58.3c1.2,18.5,1.9,37.8,6.4,55.9h51.3
				l-4.8-85.7l16.9,1.2l16.8-1.2l-4.8,85.7h51.3c3.3-13.3,5.3-38.5,5.3-38.5c2.2-18.5,2.7-37.1,2.8-55.6
				C1208.2,243.5,1209,225.4,1207.6,207.8z"/>
			<path fill="#FDCA94" d="M1136.7,438.4h99.3c-6-82.8-22-97.5-22-97.5l-45.4-12.5v-39.9h-31.9h-31.9v39.9l-45.4,12.5
				c0,0-16,14.6-22,97.5H1136.7L1136.7,438.4L1136.7,438.4z"/>
			<path fill="#E8B280" d="M1168.6,296.1v-11.5h-31.9h-31.9v11.5c12.7,13.3,26.8,18.9,31.9,18.9S1155.9,309.4,1168.6,296.1z"/>
			<path fill="#FDCA94" d="M1136.7,175c0,0-55.1-4.3-55.1,55.1s45.1,81.1,55.1,81.1s55.1-21.7,55.1-81.1S1136.7,175,1136.7,175z"/>
			<path fill="#916950" d="M1088.7,190l1.3,26.2h90.4l6.6-21.5c0,0-14.3-39.3-53-30.7C1095.2,172.6,1088.7,190,1088.7,190z"/>
			<g>
				<ellipse fill="#524441" cx="1108.6" cy="240.4" rx="4.5" ry="8"/>
				<path fill="#524441" d="M1102.8,229.8c0.8,4.7,4.8,3.9,4.8,3.9l-1.2,4.4C1099.5,236.3,1102.8,229.8,1102.8,229.8z"/>
			</g>
			<g>
				<ellipse fill="#524441" cx="1163.1" cy="240.4" rx="4.5" ry="8"/>
				<path fill="#524441" d="M1169,229.8c-0.8,4.7-4.8,3.9-4.8,3.9l1.2,4.4C1172.3,236.3,1169,229.8,1169,229.8z"/>
			</g>
			<path fill="#534F47" d="M1191.9,218.4c-0.6-27.7-16.4-51.7-44.4-58.7c-3.7-0.9-7.5-1.4-11.3-1.4c-20,0-40.6,12.6-49,31
				c-3.8,8.3-6.9,19.8-7.7,29.6c-4.8,2.3-8.1,7.6-8.1,13.9v10.4c0,8.3,5.9,15.1,13.2,15.1v-33.5c0.3-5,0.6-11.3,0.7-11.8
				c0.8-4,1.9-8,3.3-11.9c4.1-11,11.1-21.2,21.3-27.4c16.1-9.7,39.3-9.3,54.9,1.5c10.5,7.3,17.1,18.8,20.7,30.8
				c0.7,2.2,2.4,14.2,2.4,21.1v31.2c1.7,0,3.3-0.4,4.7-1c-1.3,6.2-6.2,21-22.5,26.3c-1.4-3.5-4.9-3.5-9-2.6c-4.5,1-7.5,4.3-6.9,7.4
				c0.7,3.1,4.9,4.8,9.3,3.8c4-0.9,7.1-2.2,7-5.9c20.8-6.7,24.7-28,25.1-31.1c3.2-2.8,5.3-7.1,5.3-12v-10.4
				C1201.1,226.1,1197.2,220.4,1191.9,218.4z"/>
			<path fill="#916950" d="M1172.2,226C1172.2,226,1172.2,226,1172.2,226c1.4,0.3,2.8,0.6,4.1,0.9c0.5,0,0.9-0.1,1-0.3
				c0.3-0.7-1.4-1.7-2.5-2.3c-3.1-1.6-7.5-3.3-13.6-4.5c-2.1-0.4-4.3-0.4-6.5,0c-2.6,0.5-5.2,1.7-4.7,4.6
				C1150.2,224.4,1162.3,224.2,1172.2,226L1172.2,226z"/>
			<path fill="#916950" d="M1099.6,226C1099.6,226,1099.6,226,1099.6,226c-1.4,0.3-2.8,0.6-4.1,0.9c-0.5,0-0.9-0.1-1-0.3
				c-0.3-0.7,1.4-1.7,2.5-2.3c3.1-1.6,7.5-3.3,13.6-4.5c2.1-0.4,4.3-0.4,6.5,0c2.6,0.5,5.2,1.7,4.7,4.6
				C1121.7,224.4,1109.5,224.2,1099.6,226L1099.6,226z"/>
			<path fill="#F26E61" d="M1214,341l-22.1-6.1l0,0l-23.3-6.4c0,0,0,0.1-0.1,0.3c-9.1,31.9-54.4,31.9-63.6,0
				c-0.1-0.2-0.1-0.3-0.1-0.3l-31.8,8.8v0l-13.6,3.8c0,0-16,14.6-22,97.5h20.7h78.6h81h18.2C1230,355.6,1214,341,1214,341z"/>
			<path fill="#FFFFFF" d="M1136.7,272h-6.7c0,0,1.1,19.5,6.7,19.5c5.7,0,6.7-19.5,6.7-19.5H1136.7z"/>
		</g>
		<g>
			<circle fill="#EE9D66" cx="262.2" cy="578.8" r="43.8"/>
			<path fill="#EE9D66" d="M250.1,702.7l-1.4-25.2l14.6,1.1l14.6-1.1l-1.4,25.1c44.4-8,48.6-55,49-62.4c-0.1-5.5-0.3-10.9-0.7-16.3
				c-0.7-8.9-2.3-17.6-5.8-25.5c-6.7-15.5-20.2-27.5-36.1-32.8c-4.1-1.4-8.4-2.3-12.7-2.7c-23.9-2.4-51.2,9.1-61.8,31.5
				c-7.1,14.8-6.8,30.9-6.7,46.8C202.7,654.2,209.1,695.5,250.1,702.7z"/>
			<path fill="#B07764" d="M263.3,857.6h99.3c-6-82.8-22-97.5-22-97.5l-45.4-12.5v-39.9h-31.9h-31.9v39.9L186,760.2
				c0,0-16,14.6-22,97.5H263.3L263.3,857.6L263.3,857.6z"/>
			<path fill="#A36654" d="M295.2,715.3v-11.5h-31.9h-31.9v11.5c12.7,13.3,26.8,18.9,31.9,18.9C268.4,734.1,282.5,728.5,295.2,715.3
				z"/>
			<path fill="#B07764" d="M263.3,594.2c0,0-55.1-4.3-55.1,55.1c0,59.4,45.1,81.1,55.1,81.1c10,0,55.1-21.7,55.1-81.1
				C318.4,589.8,263.3,594.2,263.3,594.2z"/>
			<path fill="#EE9D66" d="M215.3,609.2l1.3,26.2H307l6.6-21.5c0,0-14.3-39.3-53-30.7C221.9,591.8,215.3,609.2,215.3,609.2z"/>
			<g>
				<ellipse fill="#524441" cx="235.3" cy="664.6" rx="4.5" ry="8"/>
				<path fill="#524441" d="M229.5,654c0.8,4.7,4.8,3.9,4.8,3.9l-1.2,4.4C226.1,660.4,229.5,654,229.5,654z"/>
			</g>
			<g>
				<ellipse fill="#524441" cx="289.8" cy="664.6" rx="4.5" ry="8"/>
				<path fill="#524441" d="M295.6,654c-0.8,4.7-4.8,3.9-4.8,3.9l1.2,4.4C299,660.4,295.6,654,295.6,654z"/>
			</g>
			<path fill="#534F47" d="M318.6,637.6c-0.6-27.7-16.4-51.7-44.4-58.7c-3.7-0.9-7.5-1.4-11.3-1.4c-20,0-40.6,12.6-49,31
				c-3.8,8.3-6.9,19.8-7.7,29.6c-4.8,2.3-8.1,7.6-8.1,13.9v10.4c0,8.3,5.9,15.1,13.2,15.1v-33.5c0.3-5,0.6-11.3,0.7-11.8
				c0.8-4,1.9-8,3.3-11.9c4.1-11,11.1-21.2,21.3-27.4c16.1-9.7,39.3-9.3,54.9,1.5c10.5,7.3,17.1,18.8,20.7,30.8
				c0.7,2.2,2.4,14.2,2.4,21.1v31.2c1.7,0,3.3-0.4,4.7-1c-1.3,6.2-6.2,21-22.5,26.3c-1.4-3.5-4.9-3.5-9-2.6c-4.5,1-7.5,4.3-6.9,7.4
				c0.7,3.1,4.9,4.8,9.3,3.8c4-0.9,7.1-2.2,7-5.9c20.8-6.7,24.7-28,25.1-31.1c3.2-2.8,5.3-7.1,5.3-12V652
				C327.7,645.3,323.9,639.6,318.6,637.6z"/>
			<path fill="#EE9D66" d="M298.9,650.2C298.9,650.2,298.9,650.2,298.9,650.2c1.4,0.3,2.8,0.6,4.1,0.9c0.5,0,0.9-0.1,1-0.3
				c0.3-0.7-1.4-1.7-2.5-2.3c-3.1-1.6-7.5-3.3-13.6-4.5c-2.1-0.4-4.3-0.4-6.5,0c-2.6,0.5-5.2,1.7-4.7,4.6
				C276.8,648.6,289,648.4,298.9,650.2L298.9,650.2z"/>
			<path fill="#EE9D66" d="M226.3,650.2C226.3,650.2,226.3,650.2,226.3,650.2c-1.4,0.3-2.8,0.6-4.1,0.9c-0.5,0-0.9-0.1-1-0.3
				c-0.3-0.7,1.4-1.7,2.5-2.3c3.1-1.6,7.5-3.3,13.6-4.5c2.1-0.4,4.3-0.4,6.5,0c2.6,0.5,5.2,1.7,4.7,4.6
				C248.4,648.6,236.2,648.4,226.3,650.2L226.3,650.2z"/>
			<path fill="#84776F" d="M340.6,760.2l-22.1-6.1l0,0l-23.3-6.4c0,0,0,0.1-0.1,0.3c-9.1,31.9-54.4,31.9-63.6,0
				c-0.1-0.2-0.1-0.3-0.1-0.3l-31.8,8.8v0l-13.6,3.8c0,0-16,14.6-22,97.5h20.7h78.6h81h18.2C356.6,774.8,340.6,760.2,340.6,760.2z"
				/>
			<polygon fill="#94857C" points="232.6,747.6 264.5,857.6 214.5,773.2 230.2,763.4 211.9,753.4 			"/>
			<polygon fill="#FFFFFF" points="232.6,747.6 264.5,763.9 296.3,747.6 264.5,857.6 			"/>
			<polygon fill="#32332E" points="267.7,780 271.2,767.1 268,762.1 264.4,762.1 260.8,762.1 257.6,767.1 261.4,780.3 254.2,822.2 
				264.5,857.6 274.9,821.7 			"/>
			<polygon fill="#94857C" points="296.3,747.6 264.5,857.6 314.4,773.2 298.7,763.4 317,753.4 			"/>
			<path fill="#FFFFFF" d="M254.6,702.7c0,0,1.6,6.6,10,6.6s10-6.6,10-6.6H254.6z"/>
		</g>
		<g>
			<polygon fill="#FDCA94" points="620.9,775.6 633.1,760.2 587.7,747.6 587.7,707.7 555.8,707.7 523.9,707.7 523.9,747.6 
				478.5,760.2 490.7,775.6 560.7,818.2 			"/>
			<path fill="#4E6571" d="M633.1,760.2l-35.2-9.7L552,818.2l-22.5-53.8l-5.6-16.8l-45.4,12.5c0,0-21.7,11.4-21.7,97.5h98.9h98.9
				C654.8,771.6,633.1,760.2,633.1,760.2z"/>
			<path fill="#E8B280" d="M555.8,707.7h-31.9v12.5l0.6,0.6c8.3,8.4,19.5,13.1,31.3,13.1h0c11.7,0,23-4.7,31.3-13.1l0.6-0.6v-12.5
				H555.8z"/>
			<path fill="#FDCA94" d="M555.8,570.8c0,0-55.1,2.3-55.1,57.5v39.5c0,14.8,5.9,29.1,16.3,39.6l7.9,8c8,8.1,19,12.7,30.4,12.7h0.5
				h0.5c11.4,0,22.4-4.6,30.4-12.7l7.9-8c10.4-10.6,16.3-24.8,16.3-39.6v-39.5C610.9,573.1,555.8,570.8,555.8,570.8z"/>
			<path fill="#A25427" d="M602.7,571c0,0-22-38.6-90.7-9.3l11.9,2.9c0,0-13.3,3.4-25.9,16.9c-11.8,12.5-10.8,25.5-6.6,41
				c2.7,10.3,9.4,14.3,9.4,26.9c0,0,5.6,0,5.6,0c-2.3,0,3.2-27.3,5.1-29.8c8.2-10.6,25.9-2.7,36.9-2.1c14.1,0.7,34.1-10.1,45,1.2
				c8.7,9,12.1,18.4,11.9,30.7c0.5,0,5.6,0,5.6,0c0-17.8,6.1-18.8,7-18.9C617.8,630.6,631.6,577.1,602.7,571z"/>
			<path fill="#A25427" d="M585.6,699c-7.6-6.7-15.7-15.3-15.7-15.3l-14.1-2.7l-14.1,2.7c0,0-8.1,8.7-15.7,15.3
				c-7.6,6.7-24.9-26-24.9-26c3.4,60.4,54.8,55.2,54.8,55.2s51.4,5.2,54.8-55.2C610.5,673,593.2,705.7,585.6,699z"/>
			<path fill="#A25427" d="M516.5,634.1v6.7c12.5-2.9,25.8-4.1,25.8-4.1l-1.1-11.3C541.1,625.5,528,627.7,516.5,634.1z"/>
			<path fill="#A25427" d="M596.6,634.1v6.7c-12.5-2.9-25.8-4.1-25.8-4.1l1.1-11.3C571.9,625.5,585.1,627.7,596.6,634.1z"/>
			<ellipse fill="#524441" cx="530.8" cy="652" rx="4.5" ry="8"/>
			<ellipse fill="#524441" cx="581.3" cy="652" rx="4.5" ry="8"/>
			<path fill="#FFFFFF" d="M554.8,688.3h-14.1c0,0,2.2,14.5,14.1,14.5s14.1-14.5,14.1-14.5H554.8z"/>
			<path fill="#534F47" d="M615.2,625.8c-0.6-29.6-17.5-55.2-47.3-62.7c-4-1-8-1.5-12-1.5c-21.4,0-43.3,13.4-52.3,33.1
				c-4,8.9-7.4,21.1-8.2,31.5c-5.1,2.4-8.7,8.2-8.7,14.8v11.1c0,8.9,6.3,16.1,14.1,16.1v-35.8c0.4-5.3,0.7-12.1,0.8-12.6
				c0.8-4.3,2-8.6,3.5-12.7c4.4-11.8,11.8-22.6,22.7-29.2c17.2-10.4,41.9-9.9,58.5,1.6c11.2,7.7,18.3,20,22,32.9
				c0.7,2.4,2.5,15.2,2.5,22.5v33.3c1.8,0,3.5-0.4,5.1-1.1c-1.4,6.6-6.6,22.4-24,28.1c-1.5-3.7-5.2-3.7-9.6-2.8
				c-4.8,1.1-8,4.6-7.3,7.9c0.7,3.3,5.2,5.1,10,4.1c4.2-0.9,7.6-2.3,7.5-6.3c22.2-7.1,26.3-29.9,26.8-33.2c3.4-2.9,5.6-7.6,5.6-12.8
				v-11.1C625,634,620.8,627.9,615.2,625.8z"/>
			<path fill="#3B4F59" d="M617.7,755.9l-19.8-5.5L552,818.2l-22.5-53.8l-5.6-16.8l-30.3,8.4c8.7,23,32.1,78.1,62.1,95.1
				C555.8,851.1,588.5,824.1,617.7,755.9z"/>
			<path fill="#64B2BB" d="M597.9,750.5l-10.2-2.8l-30.9,43.4l-32.9-43.4L501,754c0,0,22.9,69.7,54.8,87.7c0,0,29.9-24.7,55.1-87.6
				L597.9,750.5z"/>
			<polygon fill="#72C9D3" points="524.2,742.2 516.5,749.7 524.2,802.6 555.9,791.1 			"/>
			<polygon fill="#72C9D3" points="587.7,742.2 595.4,749.7 587.7,802.6 555.9,791.1 			"/>
		</g>
		<g>
			<path fill="#694138" d="M898,622.8c-0.6-34-25-61.9-55.9-65.4c-25-2.8-53.4,10.4-64.5,36.1c-3.9,9.1-5.6,19.2-5.8,29.3
				c-0.9,51.8,19.6,63.7,19.6,63.7l43.5,3.5l43.5-3.5C878.3,686.5,898.9,674.6,898,622.8z"/>
			<path fill="#FDCA94" d="M835,857.6h99.3c-6-82.8-22-97.5-22-97.5l-45.4-12.5v-39.9H835h-31.9v39.9l-45.4,12.5
				c0,0-16,14.6-22,97.5H835L835,857.6L835,857.6z"/>
			<path fill="#E44046" d="M735.7,857.6H835l0,0l0,0h99.3c-6-82.8-22-97.5-22-97.5c-53.9,26.8-76.1,22.5-76.1,22.5
				s-16.1,0.2-40.9-9.3s-37.6-13.2-37.6-13.2S741.7,774.8,735.7,857.6z"/>
			<path fill="#E8B280" d="M866.9,715.3v-11.5H835h-31.9v11.5c12.7,13.3,26.8,18.9,31.9,18.9C840.1,734.1,854.2,728.5,866.9,715.3z"
				/>
			<path fill="#FDCA94" d="M835,594.2c0,0-55.1-4.3-55.1,55.1c0,59.4,45.1,81.1,55.1,81.1c10,0,55.1-21.7,55.1-81.1
				C890.1,589.8,835,594.2,835,594.2z"/>
			<path fill="#694138" d="M783,643.9c0,0,8.8-20.3,30.4-35.1c0,0,28.7,39.1,76.6,33.5c0,0-1.9-64.5-48.4-56.1
				S779.5,589.4,783,643.9z"/>
			<g>
				<ellipse fill="#524441" cx="809" cy="659.6" rx="4.5" ry="8"/>
				<path fill="#524441" d="M803.2,649c0.8,4.7,4.8,3.9,4.8,3.9l-1.2,4.4C799.8,655.4,803.2,649,803.2,649z"/>
			</g>
			<g>
				<ellipse fill="#524441" cx="861.5" cy="659.6" rx="4.5" ry="8"/>
				<path fill="#524441" d="M867.3,649c-0.8,4.7-4.8,3.9-4.8,3.9l1.2,4.4C870.7,655.4,867.3,649,867.3,649z"/>
			</g>
			<path fill="#534F47" d="M890.2,637.6c-0.6-27.7-16.4-51.7-44.4-58.7c-3.7-0.9-7.5-1.4-11.3-1.4c-20,0-40.6,12.6-49,31
				c-3.8,8.3-6.9,19.8-7.7,29.6c-4.8,2.3-8.1,7.6-8.1,13.9v10.4c0,8.3,5.9,15.1,13.2,15.1v-33.5c0.3-5,0.6-11.3,0.7-11.8
				c0.8-4,1.9-8,3.3-11.9c4.1-11,11.1-21.2,21.3-27.4c16.1-9.7,39.3-9.3,54.9,1.5c10.5,7.3,17.1,18.8,20.7,30.8
				c0.7,2.2,2.4,14.2,2.4,21.1v31.2c1.7,0,3.3-0.4,4.7-1c-1.3,6.2-6.2,21-22.5,26.3c-1.4-3.5-4.9-3.5-9-2.6c-4.5,1-7.5,4.3-6.9,7.4
				c0.7,3.1,4.9,4.8,9.3,3.8c4-0.9,7.1-2.2,7-5.9c20.8-6.7,24.7-28,25.1-31.1c3.2-2.8,5.3-7.1,5.3-12V652
				C899.4,645.3,895.6,639.6,890.2,637.6z"/>
			<path fill="#694138" d="M870.6,645.2C870.6,645.2,870.6,645.2,870.6,645.2c1.4,0.3,2.8,0.6,4.1,0.9c0.5,0,0.9-0.1,1-0.3
				c0.3-0.7-1.4-1.7-2.5-2.3c-3.1-1.6-7.5-3.3-13.6-4.5c-2.1-0.4-4.3-0.4-6.5,0c-2.6,0.5-5.2,1.7-4.7,4.6
				C848.5,643.6,860.7,643.4,870.6,645.2L870.6,645.2z"/>
			<path fill="#694138" d="M800.4,645.2C800.4,645.2,800.4,645.2,800.4,645.2c-1.4,0.3-2.8,0.6-4.1,0.9c-0.5,0-0.9-0.1-1-0.3
				c-0.3-0.7,1.4-1.7,2.5-2.3c3.1-1.6,7.5-3.3,13.6-4.5c2.1-0.4,4.3-0.4,6.5,0c2.6,0.5,5.2,1.7,4.7,4.6
				C822.5,643.6,810.3,643.4,800.4,645.2L800.4,645.2z"/>
			<path fill="#694138" d="M810.9,718.5c-6.6-5.2-13.3-12.4-18.8-21.7c-6.4,16.8-23.4,69.8-3.3,112.1c0,0,27-3.8,22.1-88.5
				C811,719.8,810.9,719.2,810.9,718.5z"/>
			<path fill="#FFFFFF" d="M836.3,694h-14.1c0,0,2.2,19.5,14.1,19.5s14.1-19.5,14.1-19.5H836.3z"/>
		</g>
		<g>
			<g>
				<polygon fill="#CA805E" points="1202,775.6 1214.2,760.2 1168.8,747.6 1168.8,707.7 1136.9,707.7 1105,707.7 1105,747.6 
					1059.6,760.2 1071.8,775.6 				"/>
				<path fill="#B26A4D" d="M1136.9,707.7H1105v12.5l0.6,0.6c8.3,8.4,19.5,13.1,31.3,13.1l0,0c11.7,0,23-4.7,31.3-13.1l0.6-0.6
					v-12.5H1136.9z"/>
				<path fill="#CA805E" d="M1136.9,570.8c0,0-55.1,2.3-55.1,57.5v39.5c0,14.8,5.9,29.1,16.3,39.6l7.9,8c8,8.1,19,12.7,30.4,12.7
					h0.5h0.5c11.4,0,22.4-4.6,30.4-12.7l7.9-8c10.4-10.6,16.3-24.8,16.3-39.6v-39.5C1192,573.1,1136.9,570.8,1136.9,570.8z"/>
				<path fill="#FDB81A" d="M1214.2,760.2l-35.2-9.7l0,0l-10.2-2.8l-31.2,27.9l-32.6-27.9l-45.4,12.5c0,0-21.7,11.4-21.7,97.5h98.9
					h98.9C1235.9,771.6,1214.2,760.2,1214.2,760.2z"/>
				<path fill="#C37229" d="M1204.8,592.2c-0.4-1.5-1.1-2.9-2-4.1c-1.2-1.6-2.7-3-3.6-4.8c-4.4-8.6,1.9-21.8-9-27.6
					c-1-0.5-2.1-0.9-2.9-1.7c-2.1-1.9-2.1-5.2-3.7-7.6c-2-2.9-5.9-3.6-9.4-3.2c-3.5,0.3-6.8,1.5-10.3,1.3c-6.5-0.3-6.4-6.2-11.3-8.2
					c-3.6-1.5-7.3,1.5-11.1,2.3c-6.8,1.3-14-4.8-20.2-1.7c-3.8,1.9-5.5,6.9-9.5,8.4c-3.9,1.5-8.6-0.7-12.3,1.2
					c-4.6,2.3-4.6,9.3-8.5,12.8c-4,3.6-11.4,2.9-13.9,7.7c-1.6,3-0.2,6.7-0.7,10c-1,7-9.4,11.8-8.7,18.8c0.4,3.8,3.5,7,3.3,10.8
					c-0.1,2-1.1,3.8-1.8,5.6c-1.2,3.2-1.6,6.9-0.4,10.2c1.3,3.6,5.5,4.4,6.5,7.9c0.6,2.1-0.3,5.3,0,7.7c0.3,2.4,0.9,4.8,1.8,7
					c2.6,0.4,5.3-0.3,7.3-2.1c0.1-2.3,0.2-4.6,0.3-6.9c0.1-2.2,0.3-4.5,1.5-6.3c1.2-1.7,3.1-2.8,4.3-4.4c1.5-1.9,2.1-3.9,4.3-5.2
					c4-2.4,9.4-0.5,13.7-2.4c2.4-1.1,4.2-3.2,6.2-4.9c2-1.8,4.6-3.3,7.2-2.6c1.9,0.5,3.4,2,5,3.2c4.8,3.6,11.8,4.2,17.1,1.3
					c3.1-1.7,5.9-4.5,9.4-4.7c4.8-0.3,9.2,4.3,13.8,3.1c2-0.5,3.6-2,5.6-2.3c3.7-0.6,8.5,3.8,9.3,7.3c0.2,1,0.1,2.1,0.1,3.1
					c0,2.1,0.7,4.4,2.2,5.9c1.5,1.5,3.7,2.3,4.5,4.3c0.3,0.8,0.3,1.6,0.5,2.5c0.6,2.9,3.6,4.9,6.5,5.1c9.1,0.6,13.7-12.6,10.4-19.8
					c-1.3-2.9-3.9-5.2-4.4-8.3c-0.6-3.6,1.9-6.9,2.9-10.4C1205.6,597.6,1205.6,594.8,1204.8,592.2z"/>
				<polygon fill="#E99D1C" points="1137.6,775.6 1116.7,813.7 1091.7,751.7 1105,747.6 				"/>
				<polygon fill="#E99D1C" points="1137.6,775.6 1158.6,813.7 1183.6,751.7 1168.8,747.6 				"/>
			</g>
			<path fill="#C37229" d="M1097.6,634.1v6.7c12.5-2.9,25.8-4.1,25.8-4.1l-1.1-11.3C1122.2,625.5,1109.1,627.7,1097.6,634.1z"/>
			<path fill="#C37229" d="M1177.7,634.1v6.7c-12.5-2.9-25.8-4.1-25.8-4.1l1.1-11.3C1153,625.5,1166.2,627.7,1177.7,634.1z"/>
			<ellipse fill="#524441" cx="1111.9" cy="652" rx="4.5" ry="8"/>
			<ellipse fill="#524441" cx="1162.4" cy="652" rx="4.5" ry="8"/>
			<path fill="#FFFFFF" d="M1137.6,691.2h-18.8c0,0,3,15.2,18.8,15.2s18.8-15.2,18.8-15.2H1137.6z"/>
			<path fill="#534F47" d="M1196.3,625.8c-0.6-29.6-17.5-55.2-47.3-62.7c-4-1-8-1.5-12-1.5c-21.4,0-43.3,13.4-52.3,33.1
				c-4,8.9-7.4,21.1-8.2,31.5c-5.1,2.4-8.7,8.2-8.7,14.8v11.1c0,8.9,6.3,16.1,14.1,16.1v-35.8c0.4-5.3,0.7-12.1,0.8-12.6
				c0.8-4.3,2-8.6,3.5-12.7c4.4-11.8,11.8-22.6,22.7-29.2c17.2-10.4,41.9-9.9,58.5,1.6c11.2,7.7,18.3,20,22,32.9
				c0.7,2.4,2.5,15.2,2.5,22.5v33.3c1.8,0,3.5-0.4,5.1-1.1c-1.4,6.6-6.6,22.4-24,28.1c-1.5-3.7-5.2-3.7-9.6-2.8
				c-4.8,1.1-8,4.6-7.3,7.9c0.7,3.3,5.2,5.1,10,4.1c4.2-0.9,7.6-2.3,7.5-6.3c22.2-7.1,26.3-29.9,26.8-33.2c3.4-2.9,5.6-7.6,5.6-12.8
				v-11.1C1206.1,634,1201.9,627.9,1196.3,625.8z"/>
			<polygon fill="#826E73" points="1180.2,750.8 1136.9,822.2 1093.6,750.8 1059.6,760.2 1067.8,857.6 1136.9,857.6 1206.1,857.6 
				1214.2,760.2 			"/>
			<polygon fill="#5C4D51" points="1136.9,839.3 1189.1,753.2 1180.2,750.8 1136.9,822.2 1093.6,750.8 1084.8,753.2 			"/>
		</g>
	</g>
</g>
</svg>
